# xmcd
#
# Track frame offsets:
#	150
#	10406
#	19191
#	31924
#	49512
#	64206
#	77379
#	90809
#	102580
#	112531
#	124285
#	128209
#	149465
#	178682
#	193930
#	205934
#	218551
#	236652
#	253759
#	273055
#	289418
#	305761
#
# Disc length: 4532 seconds
#
# Revision: 0
# Processed by: cddbd v1.5.2PL0 Copyright (c) Steve Scherf et al.
# Submitted via: EZCDAudioConverter 6.0.0.1
#
DISCID=3811b216
DTITLE=Bluesberry - 45 let live and hosté [CD2)
DYEAR=2016
DGENRE=Blues
TTITLE0=Padevět
TTITLE1=Je pět ráno
TTITLE2=Nemám žádnej bejvák
TTITLE3=Blues ve stínu lípy
TTITLE4=Pocem moje stará
TTITLE5=Nové wafky
TTITLE6=Blues opuštěný silnice
TTITLE7=Metařský blues
TTITLE8=Starý auto
TTITLE9=Nečekej že se vrátím
TTITLE10=Srazil jsem si stojánek s harmonikama
TTITLE11=Bluesový král
TTITLE12=Blues o spolykaných slovech
TTITLE13=Jako malá
TTITLE14=Candyman
TTITLE15=Na druhý straně
TTITLE16=I Will Always Love You
TTITLE17=Hrnek
TTITLE18=Indiánská dýmka míru
TTITLE19=Vousy jak ZZ Top
TTITLE20=May Day
TTITLE21=Boom boom boom boom
EXTD=
EXTT0=
EXTT1=
EXTT2=
EXTT3=
EXTT4=
EXTT5=
EXTT6=
EXTT7=
EXTT8=
EXTT9=
EXTT10=
EXTT11=
EXTT12=
EXTT13=
EXTT14=
EXTT15=
EXTT16=
EXTT17=
EXTT18=
EXTT19=
EXTT20=
EXTT21=
PLAYORDER=
